<svg xmlns="http://www.w3.org/2000/svg" width="120" height="32" viewBox="0 0 120 32" fill="none">
  <path d="M6 6H114V26H6V6Z" stroke="currentColor" stroke-width="1.5"/>
  <path d="M14.888 22V10.4H14.92L22.888 17.08V10.4H25.192V22H25.16L17.192 15.336V22H14.888ZM29.0351 22V10.4H31.3391V15.896H36.3231V10.4H38.6271V22H36.3231V17.92H31.3391V22H29.0351ZM45.5692 22.224C44.6619 22.224 43.8485 22.104 43.1292 21.864C42.4099 21.624 41.8032 21.2773 41.3092 20.824C40.8152 20.3707 40.4379 19.832 40.1772 19.208C39.9165 18.584 39.7862 17.8933 39.7862 17.136V15.264C39.7862 14.5067 39.9165 13.816 40.1772 13.192C40.4379 12.568 40.8152 12.0293 41.3092 11.576C41.8032 11.1227 42.4099 10.776 43.1292 10.536C43.8485 10.296 44.6619 10.176 45.5692 10.176H45.9692C46.8765 10.176 47.6899 10.296 48.4092 10.536C49.1285 10.776 49.7352 11.1227 50.2292 11.576C50.7232 12.0293 51.1005 12.568 51.3612 13.192C51.6219 13.816 51.7522 14.5067 51.7522 15.264V17.136C51.7522 17.8933 51.6219 18.584 51.3612 19.208C51.1005 19.832 50.7232 20.3707 50.2292 20.824C49.7352 21.2773 49.1285 21.624 48.4092 21.864C47.6899 22.104 46.8765 22.224 45.9692 22.224H45.5692ZM45.7692 20.16C46.5825 20.16 47.2079 19.9467 47.6452 19.52C48.0825 19.0933 48.3012 18.4747 48.3012 17.664V14.736C48.3012 13.9253 48.0825 13.3067 47.6452 12.88C47.2079 12.4533 46.5825 12.24 45.7692 12.24H45.7692C44.9559 12.24 44.3305 12.4533 43.8932 12.88C43.4559 13.3067 43.2372 13.9253 43.2372 14.736V17.664C43.2372 18.4747 43.4559 19.0933 43.8932 19.52C44.3305 19.9467 44.9559 20.16 45.7692 20.16H45.7692ZM53.7773 22V10.4H56.0813V16.048H57.9373L61.4092 10.4H63.9773L59.8652 16.896L64.3093 22H61.7973L58.0093 17.968H56.0813V22H53.7773ZM71.7814 22L71.0134 19.464H66.7534L65.9854 22H63.5694L67.3054 10.4H70.4534L74.1974 22H71.7814ZM68.8774 12.984L67.3694 17.528H70.3974L68.8774 12.984ZM77.0215 22V10.4H79.3255V20.072H84.9575V22H77.0215ZM87.1916 22V10.4H89.4956V15.896H94.4796V10.4H96.7836V22H94.4796V17.92H89.4956V22H87.1916ZM98.5156 22V10.4H100.82V22H98.5156Z" fill="currentColor"/>
</svg> 