<svg xmlns="http://www.w3.org/2000/svg" width="120" height="32" viewBox="0 0 120 32" fill="none">
  <path d="M6 6H114V26H6V6Z" stroke="currentColor" stroke-width="1.5"/>
  <path d="M23.584 22V10.4H25.888V15.496H31.648V10.4H33.952V22H31.648V17.512H25.888V22H23.584ZM36.8016 22V10.4H41.6096C42.6323 10.4 43.4709 10.568 44.1256 10.904C44.7803 11.24 45.2749 11.7147 45.6096 12.328C45.9443 12.9413 46.1116 13.656 46.1116 14.472C46.1116 15.288 45.9443 16.0027 45.6096 16.616C45.2749 17.2293 44.7803 17.704 44.1256 18.04C43.4709 18.376 42.6323 18.544 41.6096 18.544H39.1056V22H36.8016ZM39.1056 16.616H41.5536C42.2563 16.616 42.7749 16.456 43.1096 16.136C43.4443 15.816 43.6116 15.3493 43.6116 14.752V14.192C43.6116 13.5947 43.4443 13.128 43.1096 12.808C42.7749 12.488 42.2563 12.328 41.5536 12.328H39.1056V16.616ZM48.3697 22V10.4H56.7377V12.328H50.6737V15.16H56.1217V17.088H50.6737V20.072H56.7377V22H48.3697ZM59.0638 22V10.4H61.3678V16.784L66.3518 10.4H68.7158V22H66.4118V15.616L61.4278 22H59.0638ZM71.5498 22V10.4H79.9178V12.328H73.8538V15.16H79.3018V17.088H73.8538V20.072H79.9178V22H71.5498ZM86.3299 22.224C85.5166 22.224 84.7739 22.104 84.1019 21.864C83.4299 21.624 82.8606 21.2773 82.3939 20.824C81.9273 20.3707 81.5739 19.832 81.3339 19.208C81.0939 18.584 80.9739 17.8933 80.9739 17.136V15.264C80.9739 14.5067 81.0939 13.816 81.3339 13.192C81.5739 12.568 81.9273 12.0293 82.3939 11.576C82.8606 11.1227 83.4299 10.776 84.1019 10.536C84.7739 10.296 85.5166 10.176 86.3299 10.176H86.6939C87.5073 10.176 88.2499 10.296 88.9219 10.536C89.5939 10.776 90.1633 11.1227 90.6299 11.576C91.0966 12.0293 91.4499 12.568 91.6899 13.192C91.9299 13.816 92.0499 14.5067 92.0499 15.264V17.136C92.0499 17.8933 91.9299 18.584 91.6899 19.208C91.4499 19.832 91.0966 20.3707 90.6299 20.824C90.1633 21.2773 89.5939 21.624 88.9219 21.864C88.2499 22.104 87.5073 22.224 86.6939 22.224H86.3299ZM86.5139 20.16C87.3273 20.16 87.9526 19.9467 88.3899 19.52C88.8273 19.0933 89.0459 18.4747 89.0459 17.664V14.736C89.0459 13.9253 88.8273 13.3067 88.3899 12.88C87.9526 12.4533 87.3273 12.24 86.5139 12.24H86.5099C85.6966 12.24 85.0713 12.4533 84.6339 12.88C84.1966 13.3067 83.9779 13.9253 83.9779 14.736V17.664C83.9779 18.4747 84.1966 19.0933 84.6339 19.52C85.0713 19.9467 85.6966 20.16 86.5099 20.16H86.5139Z" fill="currentColor"/>
</svg> 