<svg xmlns="http://www.w3.org/2000/svg" width="120" height="32" viewBox="0 0 120 32" fill="none">
  <path d="M6 6H114V26H6V6Z" stroke="currentColor" stroke-width="1.5"/>
  <path d="M11.056 22V10.4H13.36V16.048H19.312V10.4H21.616V22H19.312V18.056H13.36V22H11.056ZM24.7302 22V10.4H27.0342V17.048L32.3462 10.4H34.9702V22H32.6662V15.352L27.3542 22H24.7302ZM38.6243 22V10.4H40.9283V22H38.6243ZM49.6804 22V15.912L46.9044 22H45.1764L42.4004 15.912V22H40.0964V10.4H42.5444L46.0484 18.424L49.5524 10.4H52.0004V22H49.6804ZM57.1945 22.224C56.3945 22.224 55.6518 22.104 54.9665 21.864C54.2812 21.624 53.6905 21.2773 53.1945 20.824C52.6985 20.3707 52.3212 19.832 52.0625 19.208C51.8038 18.584 51.6745 17.8933 51.6745 17.136V15.264C51.6745 14.5067 51.8038 13.816 52.0625 13.192C52.3212 12.568 52.6985 12.0293 53.1945 11.576C53.6905 11.1227 54.2812 10.776 54.9665 10.536C55.6518 10.296 56.3945 10.176 57.1945 10.176H57.5905C58.3905 10.176 59.1332 10.296 59.8185 10.536C60.5038 10.776 61.0945 11.1227 61.5905 11.576C62.0865 12.0293 62.4638 12.568 62.7225 13.192C62.9812 13.816 63.1105 14.5067 63.1105 15.264V17.136C63.1105 17.8933 62.9812 18.584 62.7225 19.208C62.4638 19.832 62.0865 20.3707 61.5905 20.824C61.0945 21.2773 60.5038 21.624 59.8185 21.864C59.1332 22.104 58.3905 22.224 57.5905 22.224H57.1945ZM57.3865 20.16C58.1998 20.16 58.8252 19.9467 59.2625 19.52C59.6998 19.0933 59.9185 18.4747 59.9185 17.664V14.736C59.9185 13.9253 59.6998 13.3067 59.2625 12.88C58.8252 12.4533 58.1998 12.24 57.3865 12.24H57.3865C56.5732 12.24 55.9479 12.4533 55.5105 12.88C55.0732 13.3067 54.8545 13.9253 54.8545 14.736V17.664C54.8545 18.4747 55.0732 19.0933 55.5105 19.52C55.9479 19.9467 56.5732 20.16 57.3865 20.16H57.3865ZM69.1847 22V10.4H71.4886V20.072H77.1207V22H69.1847ZM78.9828 22V10.4H87.3508V12.328H81.2868V15.16H86.7348V17.088H81.2868V20.072H87.3508V22H78.9828ZM90.5749 22V12.464H86.4709V10.4H96.9829V12.464H92.8789V22H90.5749ZM99.5911 22.224C98.1244 22.224 97.0537 21.8373 96.3791 21.064C95.7044 20.2907 95.3671 19.2 95.3671 17.792V14.608C95.3671 13.2 95.7044 12.1093 96.3791 11.336C97.0537 10.5627 98.1244 10.176 99.5911 10.176H99.6471C101.114 10.176 102.184 10.5627 102.859 11.336C103.534 12.1093 103.871 13.2 103.871 14.608V17.792C103.871 19.2 103.534 20.2907 102.859 21.064C102.184 21.8373 101.114 22.224 99.6471 22.224H99.5911ZM99.6191 20.16C100.245 20.16 100.714 19.976 101.027 19.608C101.341 19.24 101.499 18.6933 101.499 17.968V14.432C101.499 13.7067 101.341 13.16 101.027 12.792C100.714 12.424 100.245 12.24 99.6191 12.24H99.6191C98.9931 12.24 98.5244 12.424 98.2111 12.792C97.8977 13.16 97.7411 13.7067 97.7411 14.432V17.968C97.7411 18.6933 97.8977 19.24 98.2111 19.608C98.5244 19.976 98.9931 20.16 99.6191 20.16H99.6191ZM108.056 22V10.4H110.36V22H108.056Z" fill="currentColor"/>
</svg> 