<svg xmlns="http://www.w3.org/2000/svg" width="120" height="32" viewBox="0 0 120 32" fill="none">
  <path d="M6 6H114V26H6V6Z" stroke="currentColor" stroke-width="1.5"/>
  <path d="M15.432 22V10.4H19.608C20.6307 10.4 21.5053 10.5627 22.232 10.888C22.9587 11.2133 23.5187 11.7053 23.912 12.364C24.3053 13.0227 24.502 13.832 24.502 14.792V17.608C24.502 18.568 24.3053 19.3773 23.912 20.036C23.5187 20.6947 22.9587 21.1867 22.232 21.512C21.5053 21.8373 20.6307 22 19.608 22H15.432ZM17.736 19.984H19.608C20.1787 19.984 20.6613 19.8933 21.056 19.712C21.4507 19.5307 21.752 19.2573 21.96 18.892C22.168 18.5267 22.272 18.0827 22.272 17.56V14.84C22.272 14.3173 22.168 13.8733 21.96 13.508C21.752 13.1427 21.4507 12.8693 21.056 12.688C20.6613 12.5067 20.1787 12.416 19.608 12.416H17.736V19.984ZM26.4991 22V10.4H30.6751C31.6977 10.4 32.5791 10.552 33.3191 10.856C34.0591 11.16 34.6191 11.616 34.9991 12.224C35.3791 12.832 35.5691 13.5787 35.5691 14.464V14.84C35.5691 15.5627 35.4377 16.1787 35.1751 16.688C34.9124 17.1973 34.5404 17.608 34.0591 17.92C33.5777 18.232 33.0151 18.4533 32.3711 18.584L35.9331 22H33.1831L29.9751 18.776H28.8031V22H26.4991ZM28.8031 16.856H30.6751C31.2884 16.856 31.7444 16.696 32.0431 16.376C32.3417 16.056 32.4911 15.6213 32.4911 15.072V14.232C32.4911 13.6827 32.3417 13.248 32.0431 12.928C31.7444 12.608 31.2884 12.448 30.6751 12.448H28.8031V16.856ZM41.4862 22.224C40.6729 22.224 39.9302 22.104 39.2582 21.864C38.5862 21.624 38.0169 21.2773 37.5502 20.824C37.0836 20.3707 36.7302 19.832 36.4902 19.208C36.2502 18.584 36.1302 17.8933 36.1302 17.136V15.264C36.1302 14.5067 36.2502 13.816 36.4902 13.192C36.7302 12.568 37.0836 12.0293 37.5502 11.576C38.0169 11.1227 38.5862 10.776 39.2582 10.536C39.9302 10.296 40.6729 10.176 41.4862 10.176H41.8502C42.6636 10.176 43.4062 10.296 44.0782 10.536C44.7502 10.776 45.3196 11.1227 45.7862 11.576C46.2529 12.0293 46.6062 12.568 46.8462 13.192C47.0862 13.816 47.2062 14.5067 47.2062 15.264V17.136C47.2062 17.8933 47.0862 18.584 46.8462 19.208C46.6062 19.832 46.2529 20.3707 45.7862 20.824C45.3196 21.2773 44.7502 21.624 44.0782 21.864C43.4062 22.104 42.6636 22.224 41.8502 22.224H41.4862ZM41.6702 20.16C42.4836 20.16 43.1089 19.9467 43.5462 19.52C43.9836 19.0933 44.2022 18.4747 44.2022 17.664V14.736C44.2022 13.9253 43.9836 13.3067 43.5462 12.88C43.1089 12.4533 42.4836 12.24 41.6702 12.24H41.6662C40.8529 12.24 40.2276 12.4533 39.7902 12.88C39.3529 13.3067 39.1342 13.9253 39.1342 14.736V17.664C39.1342 18.4747 39.3529 19.0933 39.7902 19.52C40.2276 19.9467 40.8529 20.16 41.6662 20.16H41.6702ZM49.2263 22V10.4H53.8743C54.897 10.4 55.7356 10.568 56.3903 10.904C57.045 11.24 57.5396 11.7147 57.8743 12.328C58.209 12.9413 58.3763 13.656 58.3763 14.472C58.3763 15.288 58.209 16.0027 57.8743 16.616C57.5396 17.2293 57.045 17.704 56.3903 18.04C55.7356 18.376 54.897 18.544 53.8743 18.544H51.5303V22H49.2263ZM51.5303 16.616H53.8183C54.5316 16.616 55.0583 16.456 55.3983 16.136C55.7383 15.816 55.9083 15.3493 55.9083 14.736V14.192C55.9083 13.5787 55.7383 13.112 55.3983 12.792C55.0583 12.472 54.5316 12.312 53.8183 12.312H51.5303V16.616ZM61.1344 22V10.4H69.5024V12.328H63.4384V15.16H68.8864V17.088H63.4384V20.072H69.5024V22H61.1344ZM71.6265 22V10.4H77.8105C78.8332 10.4 79.6718 10.5627 80.3265 10.888C80.9812 11.2133 81.4758 11.672 81.8105 12.264C82.1452 12.856 82.3125 13.5573 82.3125 14.352C82.3125 15.1467 82.1452 15.848 81.8105 16.44C81.4758 17.032 80.9812 17.4907 80.3265 17.816C79.6718 18.1413 78.8332 18.304 77.8105 18.304H73.9305V22H71.6265ZM73.9305 16.344H77.7545C78.4678 16.344 78.9945 16.184 79.3345 15.864C79.6745 15.544 79.8445 15.0773 79.8445 14.464V14.24C79.8445 13.6267 79.6745 13.16 79.3345 12.84C78.9945 12.52 78.4678 12.36 77.7545 12.36H73.9305V16.344ZM87.9386 22V12.464H83.8346V10.4H94.3466V12.464H90.2426V22H87.9386ZM96.0788 22V10.4H98.3828V22H96.0788Z" fill="currentColor"/>
</svg> 