<svg xmlns="http://www.w3.org/2000/svg" width="120" height="32" viewBox="0 0 120 32" fill="none">
  <path d="M6 6H114V26H6V6Z" stroke="currentColor" stroke-width="1.5"/>
  <path d="M32.384 22L29.408 17.2H28.328V22H26.024V10.4H31.096C32.1187 10.4 32.9613 10.5627 33.624 10.888C34.2867 11.2133 34.7733 11.672 35.084 12.264C35.3947 12.856 35.55 13.5573 35.55 14.368C35.55 15.36 35.2813 16.184 34.744 16.84C34.2067 17.496 33.3933 17.9253 32.304 18.136L35.536 22H32.384ZM28.328 15.272H31.068C31.8173 15.272 32.3587 15.104 32.692 14.768C33.0253 14.432 33.192 13.968 33.192 13.376V13.264C33.192 12.688 33.0253 12.24 32.692 11.92C32.3587 11.6 31.8173 11.44 31.068 11.44H28.328V15.272ZM40.3449 22.224C39.4376 22.224 38.6243 22.104 37.9049 21.864C37.1856 21.624 36.5789 21.2773 36.0849 20.824C35.5909 20.3707 35.2136 19.832 34.9529 19.208C34.6923 18.584 34.5619 17.8933 34.5619 17.136V15.264C34.5619 14.5067 34.6923 13.816 34.9529 13.192C35.2136 12.568 35.5909 12.0293 36.0849 11.576C36.5789 11.1227 37.1856 10.776 37.9049 10.536C38.6243 10.296 39.4376 10.176 40.3449 10.176H40.7449C41.6523 10.176 42.4656 10.296 43.1849 10.536C43.9043 10.776 44.5109 11.1227 45.0049 11.576C45.4989 12.0293 45.8763 12.568 46.1369 13.192C46.3976 13.816 46.5279 14.5067 46.5279 15.264V17.136C46.5279 17.8933 46.3976 18.584 46.1369 19.208C45.8763 19.832 45.4989 20.3707 45.0049 20.824C44.5109 21.2773 43.9043 21.624 43.1849 21.864C42.4656 22.104 41.6523 22.224 40.7449 22.224H40.3449ZM40.5449 20.16C41.3583 20.16 41.9836 19.9467 42.4209 19.52C42.8583 19.0933 43.0769 18.4747 43.0769 17.664V14.736C43.0769 13.9253 42.8583 13.3067 42.4209 12.88C41.9836 12.4533 41.3583 12.24 40.5449 12.24H40.5449C39.7316 12.24 39.1063 12.4533 38.6689 12.88C38.2316 13.3067 38.0129 13.9253 38.0129 14.736V17.664C38.0129 18.4747 38.2316 19.0933 38.6689 19.52C39.1063 19.9467 39.7316 20.16 40.5449 20.16H40.5449ZM48.5531 22V10.4H50.8571V20.072H56.4891V22H48.5531ZM58.3352 22V10.4H60.6392V22H58.3352Z" fill="currentColor"/>
</svg> 